<?xml version="1.0" encoding="utf-8"?>
<!-- Generator: Adobe Illustrator 23.0.1, SVG Export Plug-In . SVG Version: 6.00 Build 0)  -->
<svg version="1.1" id="图层_1" xmlns="http://www.w3.org/2000/svg" xmlns:xlink="http://www.w3.org/1999/xlink" x="0px" y="0px"
	 viewBox="0 0 512 512" style="enable-background:new 0 0 512 512;" xml:space="preserve">
<style type="text/css">
	.st0{fill:#222222;}
	.st1{enable-background:new    ;}
	.st2{fill:#FFFFFF;}
</style>
<path class="st0" d="M313.2,38H198.8c-8.9,0-17.5,2.8-24.7,8l-92.5,67.2c-7.2,5.2-12.5,12.6-15.3,21L31,243c-2.7,8.4-2.7,17.5,0,26
	l35.3,108.8c2.7,8.4,8.1,15.8,15.3,21l92.5,67.2c7.2,5.2,15.8,8,24.7,8h114.4c8.9,0,17.5-2.8,24.7-8l92.5-67.2
	c7.2-5.2,12.5-12.6,15.3-21L481,269c2.7-8.4,2.7-17.5,0-26l-35.3-108.8c-2.7-8.4-8.1-15.8-15.3-21L337.9,46
	C330.7,40.8,322.1,38,313.2,38z"/>
<g>
	<g class="st1">
		<path class="st2" d="M356,394.7c-11.7,5.8-39,12.5-73.8,12.5c-100,0-151.5-62.5-151.5-144.8c0-98.4,70.5-152.9,157.7-152.9
			c33.9,0,59.7,6.6,71.1,12.8l-13.3,51.6c-13-5.7-31.5-10.8-54.8-10.8c-51.5,0-91.9,31.4-91.9,95.5c0,57.9,34.1,94.2,92.2,94.2
			c20,0,41.6-3.9,54.6-9.3L356,394.7z"/>
	</g>
</g>
</svg>
